<svg fill="currentColor" fill-rule="evenodd" height="1em" style="flex:none;line-height:1" viewBox="0 0 50 50" width="1em" xmlns="http://www.w3.org/2000/svg"><path clip-rule="evenodd" d="M25 50c13.807 0 25-11.193 25-25S38.807 0 25 0 0 11.193 0 25s11.193 25 25 25zm12.794-25.343v5.122c0 .736-.294 1.471-.882 1.937l-9.338 7.549a2.356 2.356 0 01-1.496.514H12.696v-6.813H28.53c1.324 0 2.182-.638 2.182-1.961v-1.226c0-1.323-.883-1.96-2.182-1.96H15.123c-1.324 0-2.427-1.128-2.427-2.427V20.27c0-.711.294-1.397.833-1.863l9.093-7.55c.442-.367.98-.587 1.545-.587h11.446v6.813H21.47c-1.054 0-1.716.662-1.716 1.716v1.716c0 1.054.662 1.715 1.716 1.715h14.142c1.299 0 2.181 1.103 2.181 2.427z"/></svg>