<svg xmlns="http://www.w3.org/2000/svg" width="32" height="32" viewBox="0 0 24 24"><g fill="none" fill-rule="evenodd"><path d="M12.593 23.258l-.011.002-.071.035-.02.004-.014-.004-.071-.035q-.016-.005-.024.005l-.004.01-.017.428.005.02.01.013.104.074.015.004.012-.004.104-.074.012-.016.004-.017-.017-.427q-.004-.016-.017-.018m.265-.113l-.013.002-.185.093-.01.01-.003.011.018.43.005.012.008.007.201.093q.019.005.029-.008l.004-.014-.034-.614q-.005-.018-.02-.022m-.715.002a.02.02 0 00-.027.006l-.006.014-.034.614q.001.018.017.024l.015-.002.201-.093.01-.008.004-.011.017-.43-.003-.012-.01-.01z"/><path fill="currentColor" d="M6 3a3 3 0 011 5.83V9a2 2 0 002 2h6a4 4 0 014 4v.17a3.001 3.001 0 11-2 0V15a2 2 0 00-2-2H9a4 4 0 01-2-.535v2.706a3.001 3.001 0 11-2 0V8.829A3.001 3.001 0 016 3m12 14a1 1 0 100 2 1 1 0 000-2M6 17a1 1 0 100 2 1 1 0 000-2M6 5a1 1 0 100 2 1 1 0 000-2"/></g></svg>